<svg width="48" height="48" viewBox="0 0 48 48" fill="none" xmlns="http://www.w3.org/2000/svg">
<path fill-rule="evenodd" clip-rule="evenodd" d="M24 5.9245L8.34611 14.9622V33.0377L24 42.0755L39.6538 33.0377V14.9622L24 5.9245ZM41.3205 14L24 4L6.67944 14V34L24 44L41.3205 34V14Z" fill="#727477"/>
<path fill-rule="evenodd" clip-rule="evenodd" d="M27.7875 22.9396H20.2117V27.7881H27.7875V22.9396ZM18.545 21.2729V29.4548H29.4541V21.2729H18.545Z" fill="#727477"/>
<path fill-rule="evenodd" clip-rule="evenodd" d="M21.5258 21.6011C21.5364 21.8425 21.5474 22.0928 21.5492 22.3272L19.8825 22.3395C19.8811 22.137 19.8714 21.9164 19.8603 21.6661C19.8596 21.6497 19.8589 21.6333 19.8582 21.6167C19.8466 21.3523 19.8344 21.0611 19.8334 20.7639C19.8313 20.1768 19.8714 19.5066 20.0761 18.8738C20.2867 18.2223 20.6762 17.599 21.3617 17.1526C22.0336 16.7151 22.9095 16.5 24.0029 16.5C25.0962 16.5 25.9717 16.715 26.6428 17.153C27.3277 17.6 27.7155 18.2239 27.925 18.8751C28.1283 19.5073 28.1679 20.1771 28.1666 20.763C28.1659 21.0594 28.1544 21.3504 28.1437 21.6137L28.1432 21.6267C28.1325 21.8912 28.1232 22.1227 28.1232 22.3333L26.4565 22.3333C26.4565 22.0884 26.4671 21.8272 26.4772 21.5763L26.4784 21.5466C26.4892 21.2801 26.4993 21.0194 26.4999 20.7592C26.5011 20.2318 26.4616 19.7687 26.3383 19.3854C26.2211 19.0209 26.0347 18.7464 25.732 18.5488C25.4155 18.3422 24.8899 18.1667 24.0029 18.1667C23.116 18.1667 22.5891 18.3422 22.2712 18.5492C21.9669 18.7474 21.7796 19.0224 21.6619 19.3866C21.5381 19.7694 21.4982 20.2321 21.5 20.7582C21.5009 21.0177 21.5116 21.2782 21.5232 21.5436C21.5241 21.5627 21.5249 21.5819 21.5258 21.6011Z" fill="#727477"/>
</svg>
